<svg xmlns="http://www.w3.org/2000/svg" width="640" height="420" font-family="sans-serif" font-size="12">
<text x="320.0" y="18" text-anchor="middle" font-size="14" font-weight="bold">Study count by institution and findings_label (n=272)</text>
<line x1="60" y1="360.0" x2="620" y2="360.0" stroke="#eee"/>
<text x="52" y="364.0" text-anchor="end">0</text>
<line x1="60" y1="306.8" x2="620" y2="306.8" stroke="#eee"/>
<text x="52" y="310.8" text-anchor="end">10</text>
<line x1="60" y1="253.5" x2="620" y2="253.5" stroke="#eee"/>
<text x="52" y="257.5" text-anchor="end">20</text>
<line x1="60" y1="200.3" x2="620" y2="200.3" stroke="#eee"/>
<text x="52" y="204.3" text-anchor="end">30</text>
<line x1="60" y1="147.1" x2="620" y2="147.1" stroke="#eee"/>
<text x="52" y="151.1" text-anchor="end">40</text>
<line x1="60" y1="93.9" x2="620" y2="93.9" stroke="#eee"/>
<text x="52" y="97.9" text-anchor="end">50</text>
<line x1="60" y1="40.6" x2="620" y2="40.6" stroke="#eee"/>
<text x="52" y="44.6" text-anchor="end">60</text>
<text x="15" y="195.0" transform="rotate(-90 15,195.0)" text-anchor="middle">Study count</text>
<rect x="82.4" y="205.6" width="67.2" height="154.4" fill="#9aa5b1"/>
<text x="116.0" y="286.8" text-anchor="middle" font-size="10" fill="#fff">29</text>
<rect x="82.4" y="157.7" width="67.2" height="47.9" fill="#4c9be8"/>
<text x="116.0" y="185.7" text-anchor="middle" font-size="10" fill="#fff">9</text>
<rect x="82.4" y="120.5" width="67.2" height="37.3" fill="#f2b134"/>
<text x="116.0" y="143.1" text-anchor="middle" font-size="10" fill="#fff">7</text>
<rect x="82.4" y="99.2" width="67.2" height="21.3" fill="#e8544c"/>
<text x="116.0" y="113.8" text-anchor="middle" font-size="10" fill="#fff">4</text>
<rect x="82.4" y="30.0" width="67.2" height="69.2" fill="#c9c9c9"/>
<text x="116.0" y="68.6" text-anchor="middle" font-size="10" fill="#fff">13</text>
<text x="116.0" y="378" text-anchor="middle">INST01</text>
<text x="116.0" y="392" text-anchor="middle" font-size="10" fill="#666">n=62</text>
<rect x="194.4" y="216.3" width="67.2" height="143.7" fill="#9aa5b1"/>
<text x="228.0" y="292.1" text-anchor="middle" font-size="10" fill="#fff">27</text>
<rect x="194.4" y="147.1" width="67.2" height="69.2" fill="#4c9be8"/>
<text x="228.0" y="185.7" text-anchor="middle" font-size="10" fill="#fff">13</text>
<rect x="194.4" y="120.5" width="67.2" height="26.6" fill="#f2b134"/>
<text x="228.0" y="137.8" text-anchor="middle" font-size="10" fill="#fff">5</text>
<rect x="194.4" y="109.8" width="67.2" height="10.6" fill="#e8544c"/>
<rect x="194.4" y="61.9" width="67.2" height="47.9" fill="#c9c9c9"/>
<text x="228.0" y="89.9" text-anchor="middle" font-size="10" fill="#fff">9</text>
<text x="228.0" y="378" text-anchor="middle">INST02</text>
<text x="228.0" y="392" text-anchor="middle" font-size="10" fill="#666">n=56</text>
<rect x="306.4" y="168.4" width="67.2" height="191.6" fill="#9aa5b1"/>
<text x="340.0" y="268.2" text-anchor="middle" font-size="10" fill="#fff">36</text>
<rect x="306.4" y="136.5" width="67.2" height="31.9" fill="#4c9be8"/>
<text x="340.0" y="156.4" text-anchor="middle" font-size="10" fill="#fff">6</text>
<rect x="306.4" y="131.1" width="67.2" height="5.3" fill="#e8544c"/>
<rect x="306.4" y="72.6" width="67.2" height="58.5" fill="#c9c9c9"/>
<text x="340.0" y="105.9" text-anchor="middle" font-size="10" fill="#fff">11</text>
<text x="340.0" y="378" text-anchor="middle">INST03</text>
<text x="340.0" y="392" text-anchor="middle" font-size="10" fill="#666">n=54</text>
<rect x="418.4" y="237.6" width="67.2" height="122.4" fill="#9aa5b1"/>
<text x="452.0" y="302.8" text-anchor="middle" font-size="10" fill="#fff">23</text>
<rect x="418.4" y="200.3" width="67.2" height="37.3" fill="#4c9be8"/>
<text x="452.0" y="223.0" text-anchor="middle" font-size="10" fill="#fff">7</text>
<rect x="418.4" y="179.0" width="67.2" height="21.3" fill="#f2b134"/>
<text x="452.0" y="193.7" text-anchor="middle" font-size="10" fill="#fff">4</text>
<rect x="418.4" y="168.4" width="67.2" height="10.6" fill="#e8544c"/>
<rect x="418.4" y="104.5" width="67.2" height="63.9" fill="#c9c9c9"/>
<text x="452.0" y="140.5" text-anchor="middle" font-size="10" fill="#fff">12</text>
<text x="452.0" y="378" text-anchor="middle">INST04</text>
<text x="452.0" y="392" text-anchor="middle" font-size="10" fill="#666">n=48</text>
<rect x="530.4" y="200.3" width="67.2" height="159.7" fill="#9aa5b1"/>
<text x="564.0" y="284.2" text-anchor="middle" font-size="10" fill="#fff">30</text>
<rect x="530.4" y="157.7" width="67.2" height="42.6" fill="#4c9be8"/>
<text x="564.0" y="183.0" text-anchor="middle" font-size="10" fill="#fff">8</text>
<rect x="530.4" y="131.1" width="67.2" height="26.6" fill="#f2b134"/>
<text x="564.0" y="148.4" text-anchor="middle" font-size="10" fill="#fff">5</text>
<rect x="530.4" y="115.2" width="67.2" height="16.0" fill="#e8544c"/>
<text x="564.0" y="127.1" text-anchor="middle" font-size="10" fill="#fff">3</text>
<rect x="530.4" y="83.2" width="67.2" height="31.9" fill="#c9c9c9"/>
<text x="564.0" y="103.2" text-anchor="middle" font-size="10" fill="#fff">6</text>
<text x="564.0" y="378" text-anchor="middle">INST05</text>
<text x="564.0" y="392" text-anchor="middle" font-size="10" fill="#666">n=52</text>
<text x="320.0" y="414" text-anchor="middle">Institution (INST01–INST05)</text>
<rect x="60" y="405" width="10" height="10" fill="#9aa5b1"/>
<text x="74" y="414">No Finding</text>
<rect x="170" y="405" width="10" height="10" fill="#4c9be8"/>
<text x="184" y="414">Infiltration</text>
<rect x="280" y="405" width="10" height="10" fill="#f2b134"/>
<text x="294" y="414">Atelectasis</text>
<rect x="390" y="405" width="10" height="10" fill="#e8544c"/>
<text x="404" y="414">Nodule</text>
<rect x="500" y="405" width="10" height="10" fill="#c9c9c9"/>
<text x="514" y="414">Other</text>
</svg>